
<svg xmlns="http://www.w3.org/2000/svg" version="1.1" xmlns:xlink="http://www.w3.org/1999/xlink" preserveAspectRatio="none" x="0px" y="0px" width="550px" height="400px" viewBox="0 0 550 400">
<defs>
<g id="Layer0_0_FILL">
<path fill="#FFFFFF" stroke="none" d="
M 295.6 232.6
Q 298.4 230.55 300.95 228.05 312.05 216.9 312.1 201.15 312.1 197.9 311.65 194.85 294.6 205.3 281.2 221.1
L 274.65 228.6 268.15 221.1
Q 254.25 204.8 236.6 194.15 236 197.5 236.05 201.15 236.05 216.9 247.2 228.05 249.7 230.55 252.5 232.55
L 252.55 232.55
Q 261.9 239.2 274.05 239.2 286.2 239.2 295.65 232.55
L 295.6 232.6
M 247.2 174.3
Q 245.2 176.25 243.6 178.35 260.65 188.3 274.65 202.8 288.3 188.65 304.9 178.85 303.1 176.45 300.95 174.3 289.8 163.15 274.05 163.15 258.3 163.15 247.2 174.3
M 362 159
Q 355.1 144.65 342.95 132.5 314.8 104.4 275 104.4 235.2 104.4 207.05 132.5 194.85 144.7 187.95 159.1 209.55 162.45 228.1 170.5 231.05 166.1 235.05 162.15 251.2 145.95 274.05 146 296.9 145.95 313.1 162.15 317.25 166.3 320.35 170.9 339.5 162.4 362 159
M 368.05 175.45
Q 345.95 178.35 327.4 186.55 329.2 193.45 329.25 201.15 329.25 224 313.1 240.2 309.5 243.75 305.6 246.55
L 305.55 246.55
Q 291.8 256.3 274.05 256.35 256.3 256.3 242.6 246.55 238.6 243.75 235.05 240.2 218.85 224 218.9 201.15 218.9 193.2 220.85 186.1 203 178.45 181.95 175.55 178.9 187.4 178.9 200.5 178.9 240.3 207.05 268.45 235.2 296.6 275 296.6 314.8 296.6 342.95 268.45 371.1 240.3 371.1 200.5 371.1 187.35 368.05 175.45 Z"/>

<path fill="#CD3F3E" stroke="none" d="
M 235.05 162.15
Q 231.05 166.1 228.1 170.5 231.85 172.1 235.45 173.95 239.6 176 243.6 178.35 245.2 176.25 247.2 174.3 258.3 163.15 274.05 163.15 289.8 163.15 300.95 174.3 303.1 176.45 304.9 178.85 308.8 176.5 312.85 174.45
L 312.85 174.5
Q 316.5 172.6 320.35 170.9 317.25 166.3 313.1 162.15 296.9 145.95 274.05 146 251.2 145.95 235.05 162.15
M 329.25 201.15
Q 329.2 193.45 327.4 186.55 323.95 188.05 320.65 189.75 316 192.1 311.65 194.85 312.1 197.9 312.1 201.15 312.05 216.9 300.95 228.05 298.4 230.55 295.6 232.6
L 295.65 232.55
Q 286.2 239.2 274.05 239.2 261.9 239.2 252.55 232.55
L 252.5 232.55
Q 249.7 230.55 247.2 228.05 236.05 216.9 236.05 201.15 236 197.5 236.6 194.15 232.3 191.55 227.75 189.3 224.35 187.6 220.85 186.1 218.9 193.2 218.9 201.15 218.85 224 235.05 240.2 238.6 243.75 242.6 246.55 256.3 256.3 274.05 256.35 291.8 256.3 305.55 246.55
L 305.6 246.55
Q 309.5 243.75 313.1 240.2 329.25 224 329.25 201.15 Z"/>

<path fill="#1C2938" stroke="none" d="
M 368.05 175.45
Q 365.8 166.9 362 159 339.5 162.4 320.35 170.9 316.5 172.6 312.85 174.5
L 312.85 174.45
Q 308.8 176.5 304.9 178.85 288.3 188.65 274.65 202.8 260.65 188.3 243.6 178.35 239.6 176 235.45 173.95 231.85 172.1 228.1 170.5 209.55 162.45 187.95 159.1 184.15 167 181.95 175.55 203 178.45 220.85 186.1 224.35 187.6 227.75 189.3 232.3 191.55 236.6 194.15 254.25 204.8 268.15 221.1
L 274.65 228.6 281.2 221.1
Q 294.6 205.3 311.65 194.85 316 192.1 320.65 189.75 323.95 188.05 327.4 186.55 345.95 178.35 368.05 175.45 Z"/>
</g>
</defs>

<g transform="matrix( 1, 0, 0, 1, 0,0) ">
<use xlink:href="#Layer0_0_FILL"/>
</g>
</svg>
