<svg width="259" height="259" viewBox="0 0 259 259" fill="none" xmlns="http://www.w3.org/2000/svg">
<path d="M157.26 172.757C159.775 170.915 162.178 168.871 164.469 166.625C174.441 156.608 179.449 144.525 179.494 130.376C179.494 127.456 179.292 124.626 178.888 121.886C163.571 131.274 149.893 143.065 137.855 157.26L129.028 167.366L120.269 157.26C107.782 142.616 93.6101 130.511 77.7539 120.943C77.2149 123.953 76.9678 127.097 77.0128 130.376C77.0128 144.525 82.0212 156.608 92.038 166.625C94.2839 168.871 96.6646 170.892 99.18 172.689H99.2474C107.647 178.663 117.305 181.65 128.22 181.65C139.135 181.65 148.837 178.663 157.327 172.689L157.26 172.757ZM92.038 94.1941C90.2412 95.9459 88.6242 97.7651 87.1868 99.6517C102.504 108.59 116.451 119.573 129.028 132.599C141.291 119.887 154.879 109.129 169.792 100.325C168.175 98.1694 166.401 96.1256 164.469 94.1941C154.452 84.1772 142.369 79.1688 128.22 79.1688C114.07 79.1688 102.01 84.1772 92.038 94.1941ZM246.737 73.5765C240.538 60.6849 231.982 48.7815 221.066 37.8663C195.777 12.6221 165.255 0 129.5 0C93.7449 0 63.2228 12.6221 37.9337 37.8663C26.9736 48.8264 18.3941 60.7747 12.1954 73.7112C31.6002 76.7208 49.6349 81.8415 66.2997 89.0734C68.9499 85.1205 72.0717 81.3698 75.6652 77.8213C90.1739 63.2677 107.692 56.0133 128.22 56.0583C148.748 56.0133 166.288 63.2677 180.842 77.8213C184.57 81.5495 187.827 85.4799 190.612 89.6124C207.815 81.9762 226.524 76.6309 246.737 73.5765ZM254.89 95.7437C235.036 98.349 216.777 103.335 200.112 110.702C201.729 116.9 202.56 123.458 202.605 130.376C202.605 150.904 195.351 168.444 180.842 182.998C177.608 186.187 174.239 189.039 170.735 191.555H170.668C158.315 200.314 144.166 204.716 128.22 204.761C112.274 204.716 98.1469 200.314 85.8392 191.555C82.2458 189.039 78.8544 186.187 75.6652 182.998C61.1116 168.444 53.8573 150.904 53.9022 130.376C53.9022 123.234 54.7781 116.474 56.5299 110.095C40.494 103.223 23.0207 98.4838 4.11005 95.8785C1.37002 106.524 0 117.731 0 129.5C0 165.255 12.6446 195.777 37.9337 221.066C63.2228 246.355 93.7449 259 129.5 259C165.255 259 195.777 246.355 221.066 221.066C246.355 195.777 259 165.255 259 129.5C259 117.686 257.63 106.434 254.89 95.7437Z" fill="#FCE8C3"/>
<path d="M75.6652 77.8213C72.0717 81.3698 68.9499 85.1205 66.2997 89.0734C69.6686 90.5108 72.9701 92.0604 76.2042 93.7224C79.9324 95.5641 83.5933 97.5405 87.1868 99.6517C88.6242 97.7651 90.2412 95.9459 92.038 94.1941C102.01 84.1773 114.07 79.1688 128.22 79.1688C142.369 79.1688 154.452 84.1773 164.469 94.1941C166.401 96.1256 168.175 98.1694 169.792 100.325C173.296 98.2143 176.867 96.2379 180.505 94.3962V94.4636C183.784 92.7567 187.153 91.1396 190.612 89.6124C187.827 85.4799 184.57 81.5495 180.842 77.8213C166.288 63.2677 148.748 56.0134 128.22 56.0583C107.692 56.0134 90.1739 63.2677 75.6652 77.8213ZM202.605 130.376C202.56 123.458 201.729 116.9 200.112 110.702C197.012 112.049 193.98 113.487 191.016 115.014C186.838 117.125 182.796 119.416 178.888 121.886C179.292 124.626 179.494 127.456 179.494 130.376C179.449 144.525 174.441 156.608 164.469 166.625C162.178 168.871 159.775 170.915 157.26 172.757L157.327 172.689C148.837 178.663 139.135 181.65 128.22 181.65C117.305 181.65 107.647 178.663 99.2474 172.689H99.18C96.6646 170.892 94.2839 168.871 92.038 166.625C82.0212 156.608 77.0128 144.525 77.0128 130.376C76.9678 127.097 77.2149 123.953 77.7539 120.943C73.8909 118.607 69.9156 116.429 65.828 114.407C62.7736 112.88 59.6742 111.443 56.5299 110.095C54.7781 116.474 53.9022 123.234 53.9022 130.376C53.8573 150.904 61.1116 168.444 75.6652 182.998C78.8544 186.187 82.2458 189.039 85.8392 191.555C98.1469 200.314 112.274 204.716 128.22 204.761C144.166 204.716 158.315 200.314 170.668 191.555H170.735C174.239 189.039 177.608 186.187 180.842 182.998C195.35 168.444 202.605 150.904 202.605 130.376Z" fill="#CD3F3E"/>
<path d="M254.89 95.7438C252.869 88.0627 250.151 80.6736 246.737 73.5765C226.524 76.6309 207.815 81.9762 190.612 89.6124C187.153 91.1396 183.784 92.7567 180.505 94.4636V94.3962C176.867 96.2379 173.296 98.2143 169.792 100.325C154.879 109.129 141.291 119.887 129.028 132.599C116.451 119.573 102.504 108.59 87.1869 99.6517C83.5934 97.5405 79.9325 95.5641 76.2043 93.7224C72.9701 92.0604 69.6686 90.5108 66.2998 89.0734C49.635 81.8415 31.6002 76.7208 12.1954 73.7112C8.78163 80.8084 6.08652 88.1975 4.11011 95.8785C23.0208 98.4838 40.4941 103.223 56.53 110.095C59.6743 111.443 62.7737 112.88 65.8281 114.407C69.9157 116.429 73.891 118.607 77.754 120.943C93.6102 130.511 107.782 142.616 120.269 157.26L129.028 167.366L137.855 157.26C149.893 143.065 163.571 131.274 178.888 121.886C182.796 119.416 186.839 117.125 191.016 115.014C193.981 113.487 197.013 112.049 200.112 110.702C216.777 103.335 235.036 98.349 254.89 95.7438Z" fill="#623411"/>
</svg>
